<?xml version="1.0" encoding="utf-8"?>
<!-- Generator: Adobe Illustrator 22.1.0, SVG Export Plug-In . SVG Version: 6.00 Build 0)  -->
<svg version="1.1" id="Layer_1" xmlns="http://www.w3.org/2000/svg" xmlns:xlink="http://www.w3.org/1999/xlink" x="0px" y="0px"
	 viewBox="0 0 270.1 279.6" style="enable-background:new 0 0 270.1 279.6;" xml:space="preserve">
<style type="text/css">
	.st0{fill:#58BBEB;}
	.st1{fill:#FFFFFF;}
</style>
<g>
	<path class="st0" d="M133.3,14.3C63.9,14.3,7.8,70.4,7.8,139.7c0,69.3,56.1,125.4,125.4,125.4c69.3,0,125.4-56.1,125.4-125.4
		c0-0.2,0-125.5,0-125.5S133.9,14.3,133.3,14.3z"/>
</g>
<g>
	<g>
		<path class="st1" d="M92.8,81.9v10.8h17.3v7.6H92.8v17.8h-8.6V74.2h28.9v7.6H92.8z"/>
		<path class="st1" d="M119.1,118.1V74.2h8.6v43.9H119.1z"/>
		<path class="st1" d="M159.7,118.1l-8.6-17.5H145v17.5h-8.6V74.2h17.2c8.9,0,14.2,6.1,14.2,13.4c0,6.2-3.8,10-8,11.5l9.8,18.9
			H159.7z M153.1,81.9H145v11.6h8.1c3.8,0,6.2-2.4,6.2-5.8C159.3,84.3,156.8,81.9,153.1,81.9z"/>
		<path class="st1" d="M187.3,118.5c-6.7,0-11.7-1.4-16-5.8l5.5-5.5c2.8,2.8,6.5,3.7,10.6,3.7c5.1,0,7.8-1.9,7.8-5.4
			c0-1.5-0.4-2.8-1.4-3.7c-0.9-0.8-1.8-1.2-3.9-1.5l-5.3-0.7c-3.8-0.6-6.5-1.7-8.5-3.6c-2.1-2.1-3.1-4.9-3.1-8.6
			c0-7.8,5.8-13.3,15.3-13.3c6,0,10.4,1.5,14.2,5.1l-5.4,5.4c-2.8-2.6-6.1-3-9-3c-4.6,0-6.8,2.5-6.8,5.5c0,1.1,0.4,2.3,1.3,3.1
			c0.9,0.8,2.3,1.5,4.1,1.7l5.2,0.7c4,0.6,6.5,1.7,8.4,3.4c2.3,2.2,3.4,5.4,3.4,9.3C203.6,113.7,196.5,118.5,187.3,118.5z"/>
		<path class="st1" d="M227,81.9v36.2h-8.6V81.9h-11.5v-7.6h31.5v7.6H227z"/>
	</g>
	<path class="st1" d="M51.6,172.8v-47.5h29.5v4.5H56.6v16.8h20.8v4.5H56.6v17.2h24.4v4.5H51.6z"/>
	<path class="st1" d="M103.4,172.8h-4.1l-15.6-47.5H89l12.3,38.4l12.3-38.4h5.3L103.4,172.8z"/>
	<path class="st1" d="M124.9,172.8v-47.5h29.5v4.5h-24.4v16.8h20.8v4.5h-20.8v17.2h24.4v4.5H124.9z"/>
	<path class="st1" d="M193.6,172.8l-25.2-38.1v38.1h-5.1v-47.5h4.8l25.2,38v-38h5.1v47.5H193.6z"/>
	<path class="st1" d="M224.5,129.8v43h-5.1v-43h-13.7v-4.5h32.6v4.5H224.5z"/>
</g>
</svg>
